<?xml version="1.0" encoding="UTF-8" standalone="no" ?>
<!DOCTYPE svg PUBLIC "-//W3C//DTD SVG 1.1//EN" "http://www.w3.org/Graphics/SVG/1.1/DTD/svg11.dtd">
<svg xmlns="http://www.w3.org/2000/svg" xmlns:xlink="http://www.w3.org/1999/xlink" version="1.1" width="100" height="100" viewBox="0 -2.7976190476190297 100 100" xml:space="preserve">
<desc>Created with Fabric.js 4.6.0</desc>
<defs>
</defs>
<g transform="matrix(1.23 0 0 1.23 50 47.2)" id="x8MoqpVS6n3mK_eWmYshU"  >
<g style="" vector-effect="non-scaling-stroke"   >
		<g transform="matrix(1 0 0 1 0 0)" id="t3w8nofXQTSgwqVr6F639"  >
<path style="stroke: none; stroke-width: 1; stroke-dasharray: none; stroke-linecap: butt; stroke-dashoffset: 0; stroke-linejoin: miter; stroke-miterlimit: 4; fill: rgb(179,181,179); fill-rule: nonzero; opacity: 1;" vector-effect="non-scaling-stroke"  transform=" translate(-40, -40)" d="M 40 0 C 17.9 0 0 17.9 0 40 C 0 62.1 17.9 80 40 80 C 62.1 80 80 62.1 80 40 C 80 17.9 62.1 0 40 0 z" stroke-linecap="round" />
</g>
		<g transform="matrix(1 0 0 1 0 3.75)" id="hJUFdXNrUcjQjrWJ9kwSY"  >
<path style="stroke: none; stroke-width: 1; stroke-dasharray: none; stroke-linecap: butt; stroke-dashoffset: 0; stroke-linejoin: miter; stroke-miterlimit: 4; fill: rgb(255,255,255); fill-rule: nonzero; opacity: 1;" vector-effect="non-scaling-stroke"  transform=" translate(-40, -43.75)" d="M 65.3 62.3 C 58.4 68.7 50.2 72.6 40 72.6 C 29.799999999999997 72.6 21.6 68.69999999999999 14.7 62.3 C 14.7 62.3 31 53.9 31 50.599999999999994 L 31 44.8 C 29.4 42.4 28.4 40.199999999999996 28.1 39.5 C 27.400000000000002 39 25.200000000000003 37.3 25 34.2 C 24.9 31.700000000000003 25.7 31.1 26.5 31.000000000000004 C 26.5 31.000000000000004 24.7 14.900000000000002 40 14.900000000000002 C 55.3 14.900000000000002 53.5 31 53.5 31 C 54.3 31.1 55.2 31.7 55 34.2 C 54.8 37.300000000000004 52.6 39.1 51.9 39.5 C 51.6 40.2 50.6 42.5 49 44.8 L 49 50.599999999999994 C 49 53.9 65.3 62.3 65.3 62.3 z" stroke-linecap="round" />
</g>
</g>
</g>
</svg>